<?xml version="1.0" standalone="no"?><!DOCTYPE svg PUBLIC "-//W3C//DTD SVG 1.1//EN" "http://www.w3.org/Graphics/SVG/1.1/DTD/svg11.dtd"><svg t="1501997980458" class="icon" style="" viewBox="0 0 1365 1024" version="1.1" xmlns="http://www.w3.org/2000/svg" p-id="16901" xmlns:xlink="http://www.w3.org/1999/xlink" width="399.90234375" height="300"><defs><style type="text/css"></style></defs><path d="M668.624213 59.265707c-235.64288 0-426.666667 191.025493-426.666666 426.668373 0 235.639467 191.025493 426.66496 426.666666 426.66496 235.639467 0 426.66496-191.025493 426.66496-426.66496 0-235.644587-191.023787-426.668373-426.66496-426.668373z m0 822.114986c-218.400427 0-395.44832-177.0496-395.44832-395.446613 0-218.400427 177.047893-395.44832 395.44832-395.44832 218.397013 0 395.446613 177.047893 395.446614 395.44832 0 218.395307-177.0496 395.446613-395.446614 395.446613z" fill="#EFF0F2" p-id="16902"></path><path d="M668.624213 485.932373m-395.44832 0a395.44832 395.44832 0 1 0 790.89664 0 395.44832 395.44832 0 1 0-790.89664 0Z" fill="#FFFFFF" p-id="16903"></path><path d="M465.073493 371.433813h55.975254v228.99712h-55.975254zM640.636587 371.433813h55.97696v228.99712h-55.97696zM816.19968 371.433813h55.975253v228.99712h-55.975253z" fill="#1E81D2" p-id="16904"></path></svg>